<svg xmlns="http://www.w3.org/2000/svg" version="1.1" xmlns:xlink="http://www.w3.org/1999/xlink" xmlns:svgjs="http://svgjs.dev/svgjs" width="1000" height="1000" viewBox="0 0 1000 1000"><rect width="1000" height="1000" fill="#ffffff"></rect><g transform="matrix(0.7,0,0,0.7,149.5575523598098,270.9356275303644)"><svg viewBox="0 0 377 247" data-background-color="#ffffff" preserveAspectRatio="xMidYMid meet" height="655" width="1000" xmlns="http://www.w3.org/2000/svg" xmlns:xlink="http://www.w3.org/1999/xlink"><g id="tight-bounds" transform="matrix(1,0,0,1,0.2382898280922916,-0.09999999999999432)"><svg viewBox="0 0 376.52342051426245 247.2" height="247.2" width="376.52342051426245"><g><svg viewBox="0 0 395.52 259.6718787544756" height="247.2" width="376.52342051426245"><g transform="matrix(1,0,0,1,0,186.18062104208832)"><svg viewBox="0 0 395.52 73.49125771238728" height="73.49125771238728" width="395.52"><g id="textblocktransform"><svg viewBox="0 0 395.52 73.49125771238728" height="73.49125771238728" width="395.52" id="textblock"><g><svg viewBox="0 0 395.52 73.49125771238728" height="73.49125771238728" width="395.52"><g transform="matrix(1,0,0,1,0,0)"><svg width="395.52" viewBox="3.4000000953674316 -38.20000076293945 210.67001342773438 39.150001525878906" height="73.49125771238728" data-palette-color="#883d1a"><path d="M5.55 0.1Q4.75 0.1 4.75-1.2L4.75-1.2 4.75-4.9 4.6-7.95Q4.15-16.15 4.15-20L4.15-20Q4.15-22.1 3.6-33.1L3.6-33.1Q3.5-35.5 3.45-36.18 3.4-36.85 3.4-36.9L3.4-36.9 3.4-37.25Q3.4-37.6 3.9-37.7L3.9-37.7Q4.2-37.8 5.65-37.8L5.65-37.8 6.75-37.8 8.15-37.8Q8.55-37.8 8.75-37.48 8.95-37.15 8.95-36.65L8.95-36.65Q8.95-36.15 8.05-36.15L8.05-36.15 6.9-36.2 5.6-36.2Q5.2-36.2 5.1-36.05 5-35.9 5-35.25L5-35.25Q5-34.25 5.35-27.95L5.35-27.95Q5.7-21.65 5.7-20.6L5.7-20.6Q6.3-20.6 7.4-20.9L7.4-20.9Q8.55-21.2 9.1-21.2L9.1-21.2Q9.4-21.2 9.63-20.85 9.85-20.5 9.85-20.2L9.85-20.2Q9.85-19.65 9.05-19.48 8.25-19.3 6.75-19.2L6.75-19.2Q5.7-19.05 5.7-18.6L5.7-18.6Q5.7-16.35 6.2-10.2L6.2-10.2Q6.65-4.6 6.65-1.75L6.65-1.75 6.5-1.5Q6.65-1.15 6.65-0.85L6.65-0.85Q6.65 0.1 5.55 0.1L5.55 0.1ZM21.6 0.95Q15.75 0.95 15.75-17.45L15.75-17.45 15.75-19.2Q15.75-33.15 19.35-33.15L19.35-33.15Q19.6-33.15 20.05-33L20.05-33Q21.65-32.45 23.2-32.3L23.2-32.3Q24.15-32.1 25.1-30.35L25.1-30.35Q26.15-28.55 26.67-25.6 27.2-22.65 27.2-19.55L27.2-19.55 27.1-19.3Q27.1-17.65 27.15-16.35L27.15-16.35 27.2-13.35Q27.2-10.8 27-8.75L27-8.75Q26.7-5.65 26-3.4L26-3.4Q25.55-2.05 24.97-1.15 24.4-0.25 23.55 0.35L23.55 0.35Q22.75 0.95 21.6 0.95L21.6 0.95ZM21.4-0.5Q23.35-0.5 24.3-3.25L24.3-3.25Q25.25-6.05 25.45-8.95L25.45-8.95Q25.65-11.95 25.65-13.75L25.65-13.75Q25.65-15.75 25.35-19.65L25.35-19.65Q25.1-24 25.1-25.55L25.1-25.55 24.9-25.95 25-26.2Q25-28.4 23.77-30 22.55-31.6 20.8-31.6L20.8-31.6Q18.5-31.6 18.05-29.4L18.05-29.4Q17.95-28.65 17.85-27.25L17.85-27.25Q17.85-23.55 17.55-22.2L17.55-22.2Q17.55-21.45 17.4-19.85L17.4-19.85 17.3-17.5Q17.3-16.4 17.35-15.55L17.35-15.55 17.4-13.55Q17.4-11.2 17.8-8.15L17.8-8.15Q18.1-5.9 18.5-4.35 18.9-2.8 19.65-1.7L19.65-1.7Q20.4-0.5 21.4-0.5L21.4-0.5ZM38.9 0.95Q33.05 0.95 33.05-17.45L33.05-17.45 33.05-19.2Q33.05-33.15 36.65-33.15L36.65-33.15Q36.9-33.15 37.34-33L37.34-33Q38.95-32.45 40.5-32.3L40.5-32.3Q41.45-32.1 42.4-30.35L42.4-30.35Q43.45-28.55 43.97-25.6 44.5-22.65 44.5-19.55L44.5-19.55 44.4-19.3Q44.4-17.65 44.45-16.35L44.45-16.35 44.5-13.35Q44.5-10.8 44.3-8.75L44.3-8.75Q44-5.65 43.3-3.4L43.3-3.4Q42.84-2.05 42.27-1.15 41.7-0.25 40.84 0.35L40.84 0.35Q40.05 0.95 38.9 0.95L38.9 0.95ZM38.7-0.5Q40.65-0.5 41.59-3.25L41.59-3.25Q42.55-6.05 42.75-8.95L42.75-8.95Q42.95-11.95 42.95-13.75L42.95-13.75Q42.95-15.75 42.65-19.65L42.65-19.65Q42.4-24 42.4-25.55L42.4-25.55 42.2-25.95 42.3-26.2Q42.3-28.4 41.07-30 39.84-31.6 38.09-31.6L38.09-31.6Q35.8-31.6 35.34-29.4L35.34-29.4Q35.25-28.65 35.15-27.25L35.15-27.25Q35.15-23.55 34.84-22.2L34.84-22.2Q34.84-21.45 34.7-19.85L34.7-19.85 34.59-17.5Q34.59-16.4 34.65-15.55L34.65-15.55 34.7-13.55Q34.7-11.2 35.09-8.15L35.09-8.15Q35.4-5.9 35.8-4.35 36.2-2.8 36.95-1.7L36.95-1.7Q37.7-0.5 38.7-0.5L38.7-0.5ZM51.94 0.25Q51.54 0.25 51.54-1.1L51.54-1.1Q51.34-4.55 51.34-9.8L51.34-9.8Q51.34-13.1 51.39-15.7L51.39-15.7 51.44-21.6Q51.44-25.4 51.24-31L51.24-31Q50.79-31.4 50.79-32L50.79-32Q50.79-32.35 51.22-32.73 51.64-33.1 51.99-33.1L51.99-33.1Q52.39-33.1 52.74-32.7L52.74-32.7 53.29-32.25Q53.59-32.1 54.44-31.95L54.44-31.95Q55.29-31.8 55.64-31.65L55.64-31.65Q56.39-31.25 57.64-30.1L57.64-30.1Q58.84-28.9 59.29-28.6L59.29-28.6 59.24-28.5Q59.29-28.2 59.99-27.2L59.99-27.2Q60.54-26.45 60.89-25.8L60.89-25.8Q61.69-23.5 61.69-19.85L61.69-19.85Q61.69-19.2 61.64-18.7L61.64-18.7 61.64-17.5 61.64-17.1 61.59-16.6Q61.59-15.65 61.89-15.1L61.89-15.1Q61.59-13.5 61.14-9.05L61.14-9.05Q60.99-7.75 60.64-6.3 60.29-4.85 59.79-3.9L59.79-3.9Q58.49-1.45 55.44 0.25L55.44 0.25 51.94 0.25ZM53.69-1.2L55.24-1.2Q55.59-1.6 55.89-1.85L55.89-1.85Q55.89-1.85 56.24-2.1L56.24-2.1 56.64-2.45Q60.14-5.6 60.14-14.45L60.14-14.45 60.14-15.4Q60.09-15.8 60.09-16.25L60.09-16.25 59.89-21.3Q59.74-24.2 58.14-27.3L58.14-27.3Q57.39-28.85 56.12-29.83 54.84-30.8 53.44-30.8L53.44-30.8Q52.84-30.8 52.84-21.55L52.84-21.55Q52.84-10.85 53.44-2.9L53.44-2.9 53.39-1.95 53.59-1.85 53.69-1.2ZM71.09 0Q69.94 0 69.74-0.5L69.74-0.5Q69.49-0.5 69.34-0.45L69.34-0.45 68.94-0.45Q67.84-0.45 67.54-0.95L67.54-0.95Q67.54-1.3 67.94-1.55L67.94-1.55 68.19-1.8 69.64-1.8 69.84-2 69.94-2.45 69.99-3.05Q69.99-6.1 69.84-8.5L69.84-8.5 69.74-10.35 69.64-14Q69.64-15.95 69.79-19.85L69.79-19.85 69.89-25.65Q69.89-29.45 69.64-31.45L69.64-31.45Q69.19-31.6 68.14-31.6L68.14-31.6 67.59-31.55Q67.29-31.5 66.94-31.5L66.94-31.5Q65.99-31.5 65.99-32.35L65.99-32.35Q65.99-32.55 66.44-32.75 66.89-32.95 67.19-32.95L67.19-32.95Q69.09-32.95 70.99-32.75L70.99-32.75Q72.14-32.7 73.29-32.3L73.29-32.3Q74.19-32 74.19-31.45L74.19-31.45Q74.19-31.35 74.04-31.05L74.04-31.05 72.89-30.95Q72.54-31.25 71.44-31.25L71.44-31.25 71.19-31.1Q71.34-30.65 71.34-28.45L71.34-28.45Q71.34-25.15 71.29-22.5L71.29-22.5 71.19-16.55Q71.19-14.3 71.39-11.1L71.39-11.1Q71.54-7.45 71.54-5.6L71.54-5.6 71.54-4.95Q71.49-4.6 71.49-4.05L71.49-4.05Q71.49-2.9 71.64-2.65L71.64-2.65 71.59-2.55Q71.59-2.05 72.69-2.05L72.69-2.05Q73.14-2.05 73.44-2.1L73.44-2.1 74.19-2.1Q75.64-2.1 75.64-1.4L75.64-1.4Q75.64-0.95 75.34-0.68 75.04-0.4 74.54-0.4L74.54-0.4Q74.09-0.4 73.74-0.5L73.74-0.5Q73.34-0.55 72.89-0.55L72.89-0.55Q72.59-0.55 71.99-0.3L71.99-0.3Q71.39 0 71.09 0L71.09 0ZM84.89 0.05Q83.79 0.05 82.79-0.48 81.79-1 81.79-1.8L81.79-1.8 82.14-2.05Q82.49-2.05 82.89-1.85 83.29-1.65 83.69-1.35L83.69-1.35Q83.84-1.2 84.29-0.9L84.29-0.9Q88.09-0.9 88.09-7.25L88.09-7.25Q88.09-10.65 87.89-12.85L87.89-12.85Q87.69-14.45 87.34-15.68 86.99-16.9 86.34-18.25L86.34-18.25Q85.74-19.5 84.69-20.6L84.69-20.6 84.49-20.6 84.19-20.55Q83.84-20.55 83.24-20.75L83.24-20.75 83.24-20.95 82.99-21.2Q83.14-21.5 83.54-21.95L83.54-21.95Q83.69-22.15 84.41-23 85.14-23.85 85.74-25.15L85.74-25.15Q86.19-26.45 86.19-27.6L86.19-27.6Q86.19-29.75 85.94-31.55L85.94-31.55Q85.74-33 85.41-33.98 85.09-34.95 84.49-35.65L84.49-35.65Q83.84-36.4 82.99-36.4L82.99-36.4Q82.24-36.4 81.66-35.98 81.09-35.55 80.89-35L80.89-35Q80.39-33.55 79.74-33.55L79.74-33.55Q79.44-33.55 79.16-33.75 78.89-33.95 78.84-34.25L78.84-34.25Q79.69-35.95 80.69-36.77 81.69-37.6 83.14-37.6L83.14-37.6Q83.79-37.6 84.39-37.27 84.99-36.95 85.39-36.4L85.39-36.4 85.54-36.35Q87.54-33.45 87.54-26.9L87.54-26.9Q87.54-25.7 86.64-24.1L86.64-24.1Q86.49-24 85.84-22.95L85.84-22.95Q85.44-22.3 84.99-21.7L84.99-21.7Q86.99-20.95 87.74-18.7L87.74-18.7Q88.24-17.15 88.74-14.35L88.74-14.35Q88.84-13.3 89.09-12.4L89.09-12.4Q89.34-11.05 89.39-10.68 89.44-10.3 89.44-8.95L89.44-8.95Q89.44-7.15 89.29-5.8L89.29-5.8Q89.14-4 88.54-2.5L88.54-2.5Q87.89-0.95 86.54-0.3L86.54-0.3Q85.84 0.05 84.89 0.05L84.89 0.05ZM111.88 0.8Q110.48 0.8 108.93-0.3 107.38-1.4 106.73-2.8L106.73-2.8Q106.13-4.1 105.51-11.05 104.88-18 104.88-21.4L104.88-21.4 104.88-24.05Q104.83-25.2 104.83-26.6L104.83-26.6Q104.83-29.2 105.13-31.75L105.13-31.75Q105.33-33 105.66-33.9 105.98-34.8 106.58-35.65L106.58-35.65Q107.68-37.35 109.88-37.9L109.88-37.9Q111.03-38.2 112.43-38.2L112.43-38.2Q113.38-38.2 114.36-37.65 115.33-37.1 115.33-36.35L115.33-36.35Q115.33-35.8 114.53-35.8L114.53-35.8Q114.23-35.8 113.38-36.15L113.38-36.15Q112.63-36.5 112.03-36.5L112.03-36.5Q110.63-36.5 109.51-35.93 108.38-35.35 107.73-34.4L107.73-34.4Q107.18-33.6 106.78-32.2 106.38-30.8 106.28-29.4L106.28-29.4Q106.13-28.15 106.13-26.4L106.13-26.4 106.18-23.6Q106.23-22.4 106.23-21L106.23-21Q106.23-17.55 106.93-10.85 107.63-4.15 108.28-3.1L108.28-3.1Q108.88-2.15 110.06-1.65 111.23-1.15 112.53-1.15L112.53-1.15Q114.83-1.15 116.03-2.6L116.03-2.6Q116.48-3.2 116.98-3.2L116.98-3.2Q117.43-3.2 117.43-2.5L117.43-2.5Q117.43-1.6 116.88-0.93 116.33-0.25 115.38 0.1L115.38 0.1Q113.78 0.8 111.88 0.8L111.88 0.8ZM126.53 0.05Q125.43 0.05 124.43-0.48 123.43-1 123.43-1.8L123.43-1.8 123.78-2.05Q124.13-2.05 124.53-1.85 124.93-1.65 125.33-1.35L125.33-1.35Q125.48-1.2 125.93-0.9L125.93-0.9Q129.73-0.9 129.73-7.25L129.73-7.25Q129.73-10.65 129.53-12.85L129.53-12.85Q129.33-14.45 128.98-15.68 128.63-16.9 127.98-18.25L127.98-18.25Q127.38-19.5 126.33-20.6L126.33-20.6 126.13-20.6 125.83-20.55Q125.48-20.55 124.88-20.75L124.88-20.75 124.88-20.95 124.63-21.2Q124.78-21.5 125.18-21.95L125.18-21.95Q125.33-22.15 126.06-23 126.78-23.85 127.38-25.15L127.38-25.15Q127.83-26.45 127.83-27.6L127.83-27.6Q127.83-29.75 127.58-31.55L127.58-31.55Q127.38-33 127.06-33.98 126.73-34.95 126.13-35.65L126.13-35.65Q125.48-36.4 124.63-36.4L124.63-36.4Q123.88-36.4 123.31-35.98 122.73-35.55 122.53-35L122.53-35Q122.03-33.55 121.38-33.55L121.38-33.55Q121.08-33.55 120.81-33.75 120.53-33.95 120.48-34.25L120.48-34.25Q121.33-35.95 122.33-36.77 123.33-37.6 124.78-37.6L124.78-37.6Q125.43-37.6 126.03-37.27 126.63-36.95 127.03-36.4L127.03-36.4 127.18-36.35Q129.18-33.45 129.18-26.9L129.18-26.9Q129.18-25.7 128.28-24.1L128.28-24.1Q128.13-24 127.48-22.95L127.48-22.95Q127.08-22.3 126.63-21.7L126.63-21.7Q128.63-20.95 129.38-18.7L129.38-18.7Q129.88-17.15 130.38-14.35L130.38-14.35Q130.48-13.3 130.73-12.4L130.73-12.4Q130.98-11.05 131.03-10.68 131.08-10.3 131.08-8.95L131.08-8.95Q131.08-7.15 130.93-5.8L130.93-5.8Q130.78-4 130.18-2.5L130.18-2.5Q129.53-0.95 128.18-0.3L128.18-0.3Q127.48 0.05 126.53 0.05L126.53 0.05ZM151.23 0.2Q150.83 0.2 150.65-0.1 150.48-0.4 150.33-1L150.33-1Q150.28-1.4 150.13-1.7L150.13-1.7 150.18-1.85Q149.78-4.2 148.48-7.6L148.48-7.6 147.58-10.2Q147.48-10.3 146.63-12.75L146.63-12.75 146.23-13.95Q141.73-27.85 140.58-29L140.58-29Q140.18-27.65 140.18-25.5L140.18-25.5Q140.18-24.35 140.23-23.5L140.23-23.5 140.28-21.55 140.23-20.35Q140.18-19.8 140.18-19.15L140.18-19.15Q140.18-18.05 140.28-17.25L140.28-17.25Q140.38-15.65 140.38-15.65L140.38-15.65 140.23-15.65Q140.23-7.3 140.58-6.45L140.58-6.45 140.58-1.95Q140.78-1.55 140.78-0.9L140.78-0.9Q140.78-0.5 140.5-0.2 140.23 0.1 139.83 0.1L139.83 0.1Q138.78 0.1 138.78-2.6L138.78-2.6 138.88-4.2Q138.98-4.95 138.98-5.85L138.98-5.85Q138.98-8.25 138.83-13.05L138.83-13.05Q138.68-17.85 138.68-20.25L138.68-20.25Q138.68-21.7 138.83-24.7L138.83-24.7Q138.98-27.65 138.98-29.1L138.98-29.1 138.98-29.75Q138.98-32.2 139.88-32.95L139.88-32.95 140.03-32.8 140.53-32.9Q140.73-32.85 140.98-32.6L140.98-32.6Q141.18-32.4 141.18-32.15L141.18-32.15 141.28-31.85Q141.28-31.75 141.3-31.68 141.33-31.6 141.33-31.6L141.33-31.6Q142.13-28.05 144.93-21.65L144.93-21.65Q147.78-14.9 148.48-12.7L148.48-12.7Q148.98-10.95 149.28-9.6L149.28-9.6Q150.23-5.35 151.53-3.05L151.53-3.05 151.63-3.2Q152.78-14.3 152.78-30.45L152.78-30.45 152.73-31.05Q152.68-31.3 152.68-31.7L152.68-31.7Q152.68-32.75 153.38-32.75L153.38-32.75Q153.83-32.75 154.15-32.3 154.48-31.85 154.48-31.3L154.48-31.3 154.48-27.95 154.23-27.55Q154.23-22.8 153.68-11.95 153.13-1.1 152.63-0.15L152.63-0.15 151.78 0.05 151.78 0.1 151.73 0.05 151.23 0.2ZM165.33-0.3L164.78-0.7 164.73-2.55Q164.68-3.35 164.68-4.35L164.68-4.35Q164.68-4.85 164.73-5.2L164.73-5.2 164.78-6.1Q164.78-6.6 164.58-7.3L164.58-7.3Q164.58-10.65 164.08-19.75L164.08-19.75Q163.58-28.55 163.53-31.7L163.53-31.7Q160.43-31.7 159.38-31.85L159.38-31.85Q158.38-32.1 158.38-32.65L158.38-32.65Q158.63-33.2 159.33-33.2L159.33-33.2Q160.83-33.2 163.68-33L163.68-33Q166.28-32.75 168.03-32.75L168.03-32.75 169.08-32.75 170.13-32.8Q171.03-32.8 171.03-32.15L171.03-32.15Q171.03-31.85 170.7-31.68 170.38-31.5 169.93-31.5L169.93-31.5Q168.93-31.5 167.83-31.6L167.83-31.6 165.68-31.7Q165.48-31.7 165.48-31.55L165.48-31.55Q165.43-31.4 165.43-30.6L165.43-30.6Q165.43-25.75 166.03-15.9L166.03-15.9Q166.58-5.7 166.58-1.25L166.58-1.25Q166.58-0.9 166.15-0.6 165.73-0.3 165.33-0.3L165.33-0.3ZM184.67 0.85L183.97 0.6Q183.37-0.05 182.67-2.85 181.97-5.65 181.37-9.15L181.37-9.15Q180.97-12 180.22-14.8L180.22-14.8Q179.62-17.3 179.07-17.3L179.07-17.3 178.92-17.3Q177.82-17.3 177.82-16.6L177.82-16.6Q177.82-13 178.22-5.65L178.22-5.65Q178.42-1.15 178.67-0.4L178.67-0.4 178.27 0.45 177.57 0.45 177.17 0.05Q176.37-23.05 176.37-31.45L176.37-31.45Q176.37-32 176.45-32.35 176.52-32.7 176.77-33L176.77-33Q176.97-33.35 177.47-33.35L177.47-33.35Q180.02-33.35 181.57-32.1 183.12-30.85 183.12-28.5L183.12-28.5 183.12-24.85Q183.12-23.9 182.5-22.3 181.87-20.7 181.12-19.35L181.12-19.35 180.47-18.1Q181.02-15.55 182.65-8.93 184.27-2.3 184.42-1.9L184.42-1.9Q184.47-1.85 184.55-1.65 184.62-1.45 184.87-1.05L184.87-1.05Q185.22-0.35 185.22 0.15L185.22 0.15Q185.22 0.85 184.67 0.85L184.67 0.85ZM178.07-18.55Q179.02-18.55 179.77-19.5 180.52-20.45 180.97-21.95L180.97-21.95Q181.77-25 181.77-26.8L181.77-26.8Q181.77-27.95 181.65-28.7 181.52-29.45 181.22-30.3L181.22-30.3Q180.62-32.05 178.37-32.05L178.37-32.05Q178.12-32.05 177.97-31.63 177.82-31.2 177.82-30.75L177.82-30.75Q177.82-27.4 177.92-24.7L177.92-24.7Q177.97-22 177.97-18.65L177.97-18.65 178.07-18.55ZM200.67 0.45Q199.92 0.45 199.72 0.28 199.52 0.1 199.42-0.65L199.42-0.65Q198.97-4.3 198.87-5.2L198.87-5.2 198.62-7.2Q197.52-7.45 196.12-7.45L196.12-7.45 194.32-7.55Q193.12-7.7 192.57-7.7L192.57-7.7Q192.27-7.7 192.22-7.45L192.22-7.45Q192.22-7.3 192.17-7.3L192.17-7.3 192.07-6.3Q192.02-5.4 191.52-2.7L191.52-2.7Q191.27-1.35 190.92-0.6L190.92-0.6Q190.52 0.25 190.17 0.25L190.17 0.25Q189.87 0.25 189.52-0.03 189.17-0.3 189.17-0.6L189.17-0.6 189.22-0.75 189.27-0.9Q190.17-4.45 190.77-7.95L190.77-7.95 191.37-11.05 191.97-14.85Q191.97-14.85 192.52-18.15L192.52-18.15Q192.77-19.5 193.42-22.5L193.42-22.5Q194.12-25.9 194.27-27.15L194.27-27.15Q194.32-27.3 194.47-29L194.47-29Q194.67-30.9 194.82-31.8L194.82-31.8Q194.97-33.1 195.12-33.3L195.12-33.3 195.47-33.3Q195.62-33.25 195.82-33.25L195.82-33.25Q196.42-33.25 196.72-33.55L196.72-33.55Q197.07-33.55 197.35-33.33 197.62-33.1 197.62-32.8L197.62-32.8Q197.62-30.4 197.97-27.3L197.97-27.3Q198.17-25.7 198.27-24.65L198.27-24.65Q198.82-18.2 201.07-0.45L201.07-0.45 201.07-0.3Q201.07 0.2 200.67 0.45L200.67 0.45ZM197.87-8.55L198.37-8.55Q197.87-15.75 196.47-29.8L196.47-29.8 193.77-16.45Q192.62-10.7 192.62-9.2L192.62-9.2Q192.62-8.95 194.52-8.75 196.42-8.55 197.87-8.55L197.87-8.55ZM207.37 0.65Q206.67 0.65 206.52-0.5L206.52-0.5Q206.62-0.8 206.62-2.15L206.62-2.15Q206.62-6.75 206.77-15.8L206.77-15.8Q206.92-24.8 206.92-28.8L206.92-28.8 207.02-30.6 207.17-32.1Q207.17-32.45 207.52-32.45L207.52-32.45Q207.77-32.45 208.22-32.3L208.22-32.3 208.37-32.25Q208.37-31.15 208.32-30.25L208.32-30.25 208.32-28.3 208.32-22.85Q208.37-20.45 208.37-17.4L208.37-17.4Q208.32-17.15 208.32-16.3L208.32-16.3 208.27-15.25Q208.22-14.25 208.22-13.2L208.22-13.2Q208.22-12.05 208.27-11.1L208.27-11.1 208.32-8.95 208.17-8.55 208.22-8.6Q208.22-8.45 208.17-8.4L208.17-8.4 208.17-8.2Q208.17-7.8 208.32-7.5L208.32-7.5 208.17-2.7 208.17-2.4Q208.17-1.55 208.22-1.4L208.22-1.4Q208.22-1.15 208.47-1.15L208.47-1.15 211.07-1.05Q212.22-1.05 212.64-1.03 213.07-1 213.17-1L213.17-1 213.32-1Q213.57-1 213.82-0.73 214.07-0.45 214.07-0.15L214.07-0.15Q214.07 0.45 213.27 0.5L213.27 0.5Q212.42 0.45 209.12 0.45L209.12 0.45 209.22 0.5Q208.72 0.5 208.27 0.55L208.27 0.55Q207.87 0.65 207.37 0.65L207.37 0.65Z" opacity="1" transform="matrix(1,0,0,1,0,0)" fill="#000000" class="undefined-text-0" data-fill-palette-color="primary" id="text-0"></path></svg></g></svg></g></svg></g></svg></g><g transform="matrix(1,0,0,1,113.3444505568106,0)"><svg viewBox="0 0 168.83109888637878 168.83109888637878" height="168.83109888637878" width="168.83109888637878"><g><svg></svg></g><g id="icon-0"><svg viewBox="0 0 168.83109888637878 168.83109888637878" height="168.83109888637878" width="168.83109888637878"><g><rect width="153.51123991335552" height="153.51123991335552" x="7.659929486511629" y="7.659929486511629" fill="#000000" data-fill-palette-color="accent"></rect><rect width="153.51123991335552" height="153.51123991335552" x="0" y="15.319858973023258" fill="#000000" opacity="0.5" data-fill-palette-color="accent"></rect></g><g transform="matrix(1,0,0,1,21.88551281860466,25.581364487544448)"><svg viewBox="0 0 125.06007324916946 117.66836991128989" height="117.66836991128989" width="125.06007324916946"><g><svg xmlns="http://www.w3.org/2000/svg" xmlns:xlink="http://www.w3.org/1999/xlink" version="1.1" x="0" y="0" viewBox="0 0 99.9994888305664 94.08899688720703" enable-background="new 0 0 99.999 94.088" xml:space="preserve" width="125.06007324916946" height="117.66836991128989" class="icon-s-0" data-fill-palette-color="background" id="s-0"><path d="M98.341 66.867c2.683-6.386 1.653-13.184 0.115-17.044-0.403-1.012-1.363-1.693-2.453-1.74-4.141-0.179-10.915 1.098-16.065 5.756-1.739-1.018-3.756-1.611-5.912-1.611-0.327 0-0.648 0.022-0.969 0.049-0.282-1.782-0.729-3.369-1.234-4.637-0.403-1.012-1.363-1.693-2.453-1.74-5.011-0.227-13.863 1.692-19.042 9.141-2.433-5.163-6.709-8.722-10.021-10.494V34.29c0-7.738-4.506-14.795-11.392-18.129V9.686h0.143c0.764 0 1.384-0.619 1.384-1.384V1.384C30.44 0.619 29.821 0 29.057 0H11.069c-0.764 0-1.384 0.619-1.384 1.384v6.918c0 0.765 0.62 1.384 1.384 1.384h0.323v6.475C4.506 19.494 0 26.551 0 34.29v57.031c0 1.527 1.239 2.768 2.768 2.768h17.255 17.517 54.514c1.303 0 2.429-0.908 2.705-2.182l4.803-22.139c0.178-0.816-0.025-1.67-0.551-2.324C98.82 67.209 98.589 67.026 98.341 66.867zM70.4 58.937c0.838-0.604 1.83-1.006 2.907-1.13 0.236-0.027 0.475-0.045 0.718-0.045 0.812 0 1.585 0.16 2.296 0.444 0.872 0.348 1.646 0.887 2.272 1.565 0.779 0.844 1.329 1.899 1.548 3.073 0.069 0.371 0.11 0.752 0.11 1.144 0 0.86-0.176 1.68-0.492 2.426H78.98h-2.844-2.785-2.473-2.588c-0.087-0.204-0.161-0.415-0.226-0.63-0.172-0.569-0.267-1.171-0.267-1.796C67.799 61.909 68.828 60.068 70.4 58.937zM52.199 64.856C54.235 53.991 63.236 51.898 67.23 51.51c0.173 0.706 0.346 1.587 0.458 2.586-3.257 2.094-5.425 5.742-5.425 9.893 0 0.832 0.09 1.643 0.255 2.426h-4.239l5.761-9.432c0.397-0.652 0.192-1.504-0.46-1.902-0.652-0.4-1.504-0.193-1.902 0.459l-6.643 10.875h-2.725l-0.239-0.17C52.129 65.775 52.172 65.312 52.199 64.856zM37.539 51.821c0.473-0.65 0.935-1.207 1.339-1.656 0.427 0.285 0.912 0.634 1.428 1.047 3.173 2.539 7.468 7.515 6.149 15.203h-4.241l-1.908-9.743-0.058-0.294c-0.146-0.75-0.873-1.242-1.624-1.092-0.559 0.11-0.971 0.542-1.085 1.064-0.039 0.18-0.044 0.369-0.007 0.561l0.007 0.035 1.854 9.469h-1.854-0.826-1.707c-0.084-0.245-0.163-0.488-0.234-0.729-0.138-0.468-0.256-0.932-0.345-1.387-0.29-1.48-0.329-2.887-0.197-4.206 0.097-0.971 0.285-1.893 0.542-2.762 0.145-0.488 0.307-0.962 0.487-1.416C35.898 54.306 36.735 52.926 37.539 51.821zM14.519 66.514c-0.565 0.148-1.078 0.466-1.453 0.93-0.525 0.654-0.728 1.508-0.55 2.324l4.075 18.785H5.535V34.29c0-6.09 3.851-11.597 9.58-13.706 1.088-0.399 1.812-1.438 1.812-2.597V9.686h6.452v8.302c0 1.159 0.724 2.197 1.812 2.597 5.73 2.108 9.581 7.616 9.581 13.706v12.125c-1.378 1.509-2.772 3.439-3.886 5.7-1.592-0.806-3.385-1.271-5.288-1.271-6.485 0-11.761 5.275-11.761 11.76C13.836 63.976 14.085 65.289 14.519 66.514zM29.23 66.415h-8.546c-0.82-1.055-1.313-2.375-1.313-3.811 0-3.434 2.793-6.227 6.227-6.227 1.274 0 2.459 0.386 3.448 1.046C28.471 60.182 28.427 63.214 29.23 66.415zM92.913 74.305l-3.091 14.248H40.306h-2.767-2.768H22.254l-3.569-16.455-0.032-0.148h12.792 1.265 2.062 2.457 0.311 2.767 0.248 2.415 3.602H50.3h7.938 1.872 1.773 3.51 1.087 3.37 8.35 4.456 1.011 3.131 4.605 2.021L92.913 74.305zM92.386 66.415h-6.854c0.165-0.783 0.255-1.594 0.255-2.426 0-2.313-0.681-4.468-1.84-6.289 3.399-2.925 7.542-3.775 9.919-4.006C94.525 56.397 95.202 61.625 92.386 66.415z" fill="#ffffff" data-fill-palette-color="background"></path></svg></g></svg></g></svg></g></svg></g><g></g></svg></g><defs></defs></svg><rect width="376.52342051426245" height="247.2" fill="none" stroke="none" visibility="hidden"></rect></g></svg></g></svg>